<svg width="3673" height="907" viewBox="0 0 3673 907" fill="none" xmlns="http://www.w3.org/2000/svg">
<mask id="mask0_57_3" style="mask-type:luminance" maskUnits="userSpaceOnUse" x="0" y="0" width="3673" height="907">
<path d="M3673 0H0V907H3673V0Z" fill="white"/>
</mask>
<g mask="url(#mask0_57_3)">
<path d="M701.749 101.644C687.873 83.3211 671.535 66.8962 653.309 52.9475C610.122 19.7264 556.138 0 497.555 0H0V907H101.112L433.636 639.127L638.898 473.762C643.866 470.502 648.67 467.078 653.35 463.445C661.312 457.339 668.948 450.777 676.093 443.802C681.06 438.974 685.781 433.979 690.338 428.739C723.424 391.019 745.676 343.56 752.326 291.149C753.681 280.379 754.38 269.361 754.38 258.218C754.38 199.368 734.756 145.059 701.749 101.644ZM101.112 101.644H497.596C583.601 101.644 653.35 171.718 653.35 258.218C653.35 305.305 632.658 347.565 599.898 376.246L369.717 242.659L345.251 228.462L344.759 228.174L337.533 223.964C331.375 221.117 324.478 219.507 317.252 219.507C290.405 219.507 268.646 241.38 268.646 268.329V650.847L101.194 789.632V101.644H101.112ZM369.635 531.785V359.945L391.106 372.407L452.602 408.064L516.603 445.246L369.676 566.988V531.745L369.635 531.785Z" fill="url(#paint0_linear_57_3)"/>
<path d="M965.017 247.321H1121.18C1220.2 247.321 1281.49 297.668 1281.49 382.394C1281.49 467.119 1219.62 518.661 1122.37 518.661H1059.32V650.185H965.017V247.321ZM1059.32 322.554V443.43H1117.08C1163.06 443.43 1184.28 419.122 1184.28 383.013C1184.28 346.903 1161.87 322.595 1119.46 322.595H1059.36L1059.32 322.554ZM1318.03 331.468H1408.18V375.915C1428.21 337.989 1458.88 321.398 1491.27 321.398C1504.24 321.398 1516.02 324.949 1522.51 331.468V407.898C1511.92 405.545 1500.71 404.347 1486.55 404.347C1432.32 404.347 1408.18 435.136 1408.18 485.524V650.226H1318.03V331.509V331.468ZM1686.35 659.677C1587.95 659.677 1527.23 595.711 1527.23 490.848C1527.23 385.983 1588.52 321.398 1682.82 321.398C1777.12 321.398 1837.22 384.788 1837.22 489.073V509.213H1619.15C1623.87 560.179 1647.43 587.416 1686.35 587.416C1715.83 587.416 1735.86 574.374 1745.3 545.363H1839.6C1823.1 618.821 1764.14 659.718 1686.39 659.718L1686.35 659.677ZM1620.95 457.049H1744.11C1737.05 415.574 1715.83 393.661 1682.82 393.661C1649.81 393.661 1628.01 415.574 1620.95 457.049ZM2149.58 553.617C2149.58 616.427 2091.83 659.677 2009.31 659.677C1926.79 659.677 1871.41 624.145 1859.63 545.322H1949.78C1953.89 574.952 1978.07 590.924 2011.65 590.924C2043.46 590.924 2059.39 578.501 2059.39 558.941C2059.39 497.326 1867.27 552.42 1867.27 424.447C1867.27 371.126 1910.29 321.357 1995.15 321.357C2071.18 321.357 2128.94 356.313 2137.76 436.868H2048.18C2042.89 404.266 2024.01 390.647 1992.19 390.647C1968.63 390.647 1953.31 402.49 1953.31 419.66C1953.31 482.47 2149.54 427.376 2149.54 553.533L2149.58 553.617ZM2328.73 659.677C2230.34 659.677 2169.62 595.711 2169.62 490.848C2169.62 385.983 2230.91 321.398 2325.21 321.398C2419.51 321.398 2479.61 384.788 2479.61 489.073V509.213H2261.54C2266.26 560.179 2289.82 587.416 2328.73 587.416C2358.22 587.416 2378.24 574.374 2387.7 545.363H2482C2465.49 618.821 2406.54 659.718 2328.77 659.718L2328.73 659.677ZM2263.3 457.049H2386.45C2379.4 415.574 2358.18 393.661 2325.17 393.661C2292.16 393.661 2270.37 415.574 2263.3 457.049ZM2517.3 331.468H2607.44V373.521C2628.05 337.989 2660.48 321.398 2699.36 321.398C2760.08 321.398 2805.45 358.705 2805.45 437.528V650.226H2715.28V455.892C2715.28 415.615 2699.36 394.856 2666.35 394.856C2630.39 394.856 2607.4 426.263 2607.4 467.119V650.185H2517.25V331.468H2517.3ZM2866.78 400.18H2827.89V331.468H2866.78V257.432H2956.92V331.468H3021.75V400.18H2956.92V535.253C2956.92 566.038 2965.18 583.246 3004.06 583.246H3021.13V651.383C3011.11 656.128 2991.07 659.677 2966.9 659.677C2899.13 659.677 2866.73 620.594 2866.73 546.517V400.18H2866.78ZM3037.09 490.805C3037.09 382.394 3098.38 321.357 3192.68 321.357C3286.97 321.357 3348.85 386.52 3348.85 490.805C3348.85 595.092 3286.97 659.636 3192.68 659.636C3098.38 659.636 3037.09 595.67 3037.09 490.805ZM3256.32 490.805C3256.32 429.192 3233.9 394.815 3192.68 394.815C3151.48 394.815 3129.62 428.573 3129.62 490.805C3129.62 553.039 3152.05 586.178 3192.68 586.178C3233.33 586.178 3256.32 552.998 3256.32 490.805ZM3384.81 331.468H3474.95V373.521C3495.56 337.989 3528.01 321.398 3566.87 321.398C3627.59 321.398 3672.95 358.705 3672.95 437.528V650.226H3582.81V455.892C3582.81 415.615 3566.87 394.856 3533.88 394.856C3497.92 394.856 3474.93 426.263 3474.93 467.119V650.185H3384.76V331.468H3384.81Z" fill="url(#paint1_linear_57_3)"/>
</g>
<defs>
<linearGradient id="paint0_linear_57_3" x1="-3.69472" y1="453.5" x2="3574.26" y2="453.5" gradientUnits="userSpaceOnUse">
<stop stop-color="#7A3BE8"/>
<stop offset="1" stop-color="#5146E5"/>
</linearGradient>
<linearGradient id="paint1_linear_57_3" x1="-0.000959475" y1="453.5" x2="3574.26" y2="453.5" gradientUnits="userSpaceOnUse">
<stop stop-color="#7A3BE8"/>
<stop offset="1" stop-color="#5146E5"/>
</linearGradient>
</defs>
</svg>

