<svg width="880" height="880" viewBox="0 0 880 880" fill="none" xmlns="http://www.w3.org/2000/svg">
<rect width="880" height="880" fill="#5146E5"/>
<path d="M619.047 246.033C611.414 235.932 602.426 226.878 592.399 219.188C568.641 200.875 538.943 190 506.716 190H233V690H288.624L471.552 542.33L584.471 451.17C587.204 449.372 589.847 447.485 592.421 445.483C596.802 442.116 601.003 438.499 604.933 434.654C607.665 431.992 610.262 429.239 612.769 426.35C630.971 405.556 643.212 379.394 646.87 350.501C647.616 344.564 648 338.49 648 332.348C648 299.905 637.205 269.966 619.047 246.033ZM288.624 246.033H506.738C554.051 246.033 592.421 284.663 592.421 332.348C592.421 358.305 581.039 381.601 563.017 397.413L436.389 323.77L422.93 315.944L422.659 315.785L418.684 313.464C415.296 311.895 411.502 311.007 407.527 311.007C392.758 311.007 380.788 323.065 380.788 337.921V548.791L288.669 625.299V246.033H288.624ZM436.344 483.156V388.426L448.156 395.296L481.986 414.953L517.194 435.45L436.367 502.562V483.134L436.344 483.156Z" fill="white"/>
</svg>

